<svg width="24" height="24" viewBox="0 0 24 24" fill="none" xmlns="http://www.w3.org/2000/svg">
<g clip-path="url(#clip0_25002_3492)">
<path d="M22.0312 2.15442C22.0312 2.1001 22.0242 2.06736 22.0195 2.0509C22.015 2.03519 22.0112 2.02918 22.0107 2.02844C22.0107 2.02835 22.0053 2.01896 21.9775 2.005C21.9465 1.98947 21.9059 1.97827 21.8672 1.9718C21.85 1.96894 21.837 1.96735 21.8311 1.96692H2.15625C2.10193 1.96692 2.06919 1.97393 2.05273 1.97864C2.03702 1.98315 2.03101 1.98693 2.03027 1.98743C2.03018 1.98748 2.02079 1.99284 2.00684 2.02063C1.9913 2.0517 1.9801 2.09231 1.97363 2.13098C1.97077 2.14813 1.96919 2.1612 1.96875 2.16711V21.8419C1.96875 21.8962 1.97577 21.929 1.98047 21.9454C1.98498 21.9612 1.98876 21.9672 1.98926 21.9679C1.98931 21.968 1.99467 21.9774 2.02246 21.9913C2.05353 22.0069 2.09414 22.0181 2.13281 22.0245C2.14996 22.0274 2.16303 22.029 2.16895 22.0294H21.8438C21.8981 22.0294 21.9308 22.0224 21.9473 22.0177C21.963 22.0132 21.969 22.0094 21.9697 22.0089C21.9698 22.0089 21.9792 22.0035 21.9932 21.9757C22.0087 21.9446 22.0199 21.904 22.0264 21.8654C22.0292 21.8482 22.0308 21.8351 22.0312 21.8292V2.15442ZM15.2812 17.3419C15.6955 17.3419 16.0312 17.6777 16.0312 18.0919C16.0312 18.5061 15.6955 18.8419 15.2812 18.8419H4.03125C3.61704 18.8419 3.28125 18.5061 3.28125 18.0919C3.28125 17.6777 3.61704 17.3419 4.03125 17.3419H15.2812ZM19.9688 13.5919C20.383 13.5919 20.7188 13.9277 20.7188 14.3419C20.7188 14.7561 20.383 15.0919 19.9688 15.0919H4.03125C3.61704 15.0919 3.28125 14.7561 3.28125 14.3419C3.28125 13.9277 3.61704 13.5919 4.03125 13.5919H19.9688ZM19.5137 4.21692C19.5187 4.217 19.5242 4.21769 19.5303 4.2179C19.5425 4.2183 19.5569 4.21868 19.5732 4.21985C19.6059 4.22218 19.6481 4.22647 19.6963 4.2345C19.7893 4.24999 19.9249 4.28244 20.0693 4.35461C20.2168 4.42836 20.3877 4.55065 20.5195 4.74817C20.6545 4.95058 20.7188 5.18724 20.7188 5.43567V11.0607H19.9688C20.7188 11.0607 20.7188 11.0603 20.7188 11.0607V11.0743C20.7187 11.0793 20.718 11.0849 20.7178 11.0909C20.7174 11.1031 20.717 11.1176 20.7158 11.1339C20.7135 11.1666 20.7092 11.2087 20.7012 11.257C20.6857 11.3499 20.6532 11.4855 20.5811 11.63C20.5073 11.7775 20.385 11.9484 20.1875 12.0802C19.9851 12.2151 19.7484 12.2794 19.5 12.2794H13.875V11.5294C13.875 12.2794 13.8754 12.2794 13.875 12.2794H13.8613C13.8563 12.2793 13.8508 12.2786 13.8447 12.2784C13.8325 12.278 13.8181 12.2777 13.8018 12.2765C13.7691 12.2742 13.7269 12.2699 13.6787 12.2618C13.5857 12.2463 13.4501 12.2139 13.3057 12.1417C13.1582 12.068 12.9873 11.9457 12.8555 11.7482C12.7205 11.5458 12.6562 11.3091 12.6562 11.0607V5.43567H13.4062C12.6562 5.43567 12.6562 5.43604 12.6562 5.43567V5.422C12.6563 5.41701 12.657 5.41145 12.6572 5.4054C12.6576 5.39321 12.658 5.37878 12.6592 5.36243C12.6615 5.32972 12.6658 5.28759 12.6738 5.23938C12.6893 5.1464 12.7218 5.01082 12.7939 4.86633C12.8677 4.71885 12.99 4.54792 13.1875 4.41614C13.3899 4.28119 13.6266 4.21692 13.875 4.21692H19.5137ZM10.5938 9.84192C11.008 9.84192 11.3438 10.1777 11.3438 10.5919C11.3438 11.0061 11.008 11.3419 10.5938 11.3419H4.03125C3.61704 11.3419 3.28125 11.0061 3.28125 10.5919C3.28125 10.1777 3.61704 9.84192 4.03125 9.84192H10.5938ZM14.1562 10.7794H19.2188V5.71692H14.1562V10.7794ZM10.5938 6.09192C11.008 6.09192 11.3438 6.42771 11.3438 6.84192C11.3438 7.25613 11.008 7.59192 10.5938 7.59192H6.84375C6.42954 7.59192 6.09375 7.25613 6.09375 6.84192C6.09375 6.42771 6.42954 6.09192 6.84375 6.09192H10.5938ZM23.5312 21.8419H22.7812C23.5312 21.8419 23.5312 21.8415 23.5312 21.8419V21.8566C23.5312 21.8624 23.5305 21.8694 23.5303 21.8771C23.5297 21.8928 23.529 21.9128 23.5273 21.9357C23.5241 21.9812 23.5185 22.0413 23.5068 22.1115C23.484 22.2484 23.4364 22.4425 23.335 22.6456C23.2319 22.8518 23.0654 23.0812 22.8018 23.257C22.5334 23.4358 22.2094 23.5294 21.8438 23.5294H2.15625V22.7794C2.15625 23.5294 2.15662 23.5294 2.15625 23.5294H2.1416C2.13576 23.5293 2.12882 23.5287 2.12109 23.5284C2.10538 23.5279 2.08541 23.5271 2.0625 23.5255C2.017 23.5223 1.95684 23.5167 1.88672 23.505C1.7498 23.4822 1.55562 23.4346 1.35254 23.3331C1.14638 23.23 0.916969 23.0636 0.741211 22.7999C0.562323 22.5316 0.46875 22.2075 0.46875 21.8419V2.15442H1.21875C0.46875 2.15442 0.46875 2.15479 0.46875 2.15442V2.13977C0.468844 2.13393 0.469471 2.12699 0.469727 2.11926C0.47025 2.10355 0.47102 2.08358 0.472656 2.06067C0.475907 2.01517 0.481488 1.95501 0.493164 1.88489C0.515984 1.74797 0.563562 1.55379 0.665039 1.35071C0.768119 1.14455 0.934605 0.915138 1.19824 0.73938C1.46657 0.560492 1.79064 0.466919 2.15625 0.466919H21.8438V0.869263C21.8439 0.466919 21.8434 0.466919 21.8438 0.466919H21.8584C21.8642 0.467013 21.8712 0.46764 21.8789 0.467896C21.8946 0.468419 21.9146 0.469188 21.9375 0.470825C21.983 0.474076 22.0432 0.479657 22.1133 0.491333C22.2502 0.514153 22.4444 0.561731 22.6475 0.663208C22.8536 0.766288 23.083 0.932774 23.2588 1.19641C23.4377 1.46474 23.5312 1.78881 23.5312 2.15442V21.8419Z" fill="currentColor"/>
</g>
<defs>
<clipPath id="clip0_25002_3492">
<rect width="24" height="24" fill="white"/>
</clipPath>
</defs>
</svg>
