<svg width="24" height="24" viewBox="0 0 24 24" fill="none" xmlns="http://www.w3.org/2000/svg">
<path fill-rule="evenodd" clip-rule="evenodd" d="M0.684272 2.81238C0.684272 2.39816 1.02006 2.06238 1.43427 2.06238H1.89365C2.56155 2.06238 3.10302 2.60385 3.10302 3.27175V5.7356H3.27177C3.68599 5.7356 4.02177 6.07138 4.02177 6.4856C4.02177 6.89981 3.68599 7.2356 3.27177 7.2356H2.40512C2.38791 7.23678 2.37054 7.23738 2.35302 7.23738C2.33551 7.23738 2.31813 7.23678 2.30092 7.2356H1.43427C1.02006 7.2356 0.684272 6.89981 0.684272 6.4856C0.684272 6.07138 1.02006 5.7356 1.43427 5.7356H1.60302V3.56238H1.43427C1.02006 3.56238 0.684272 3.22659 0.684272 2.81238ZM6.19677 4.6481C6.19677 4.23388 6.53256 3.8981 6.94677 3.8981H22.5655C22.9797 3.8981 23.3155 4.23388 23.3155 4.6481C23.3155 5.06231 22.9797 5.3981 22.5655 5.3981H6.94677C6.53256 5.3981 6.19677 5.06231 6.19677 4.6481ZM2.35302 10.9124C2.25986 10.9124 2.18427 10.988 2.18427 11.0811C2.18427 11.4953 1.84849 11.8311 1.43427 11.8311C1.02006 11.8311 0.684272 11.4953 0.684272 11.0811C0.684272 10.1595 1.43143 9.41238 2.35302 9.41238C3.27461 9.41238 4.02177 10.1595 4.02177 11.0811C4.02177 11.5486 3.86295 12.0023 3.5712 12.3677L2.99519 13.0874H3.27177C3.68599 13.0874 4.02177 13.4232 4.02177 13.8374C4.02177 14.2516 3.68599 14.5874 3.27177 14.5874H1.43427C1.14594 14.5874 0.883132 14.4221 0.758258 14.1622C0.633384 13.9023 0.668554 13.5938 0.848725 13.3687L2.39897 11.4318C2.39892 11.4319 2.39903 11.4317 2.39897 11.4318C2.47837 11.3323 2.52177 11.2085 2.52177 11.0811C2.52177 10.988 2.44618 10.9124 2.35302 10.9124ZM6.19677 11.9981C6.19677 11.5839 6.53256 11.2481 6.94677 11.2481H22.5655C22.9797 11.2481 23.3155 11.5839 23.3155 11.9981C23.3155 12.4123 22.9797 12.7481 22.5655 12.7481H6.94677C6.53256 12.7481 6.19677 12.4123 6.19677 11.9981ZM2.44076 18.312C2.34902 18.22 2.19217 18.2618 2.15828 18.3871C2.12993 18.492 2.08071 18.5856 2.0163 18.6647C2.10962 18.623 2.21301 18.5999 2.3218 18.5999M3.71437 19.3523C4.12268 18.7292 4.10026 17.853 3.50391 17.2539C2.59758 16.3436 1.04555 16.7555 0.710265 17.9957C0.602161 18.3955 0.838674 18.8073 1.23853 18.9154C1.41216 18.9624 1.58804 18.9443 1.74033 18.8761C1.63516 19.0051 1.57202 19.1696 1.5718 19.349C1.57158 19.5332 1.63778 19.7019 1.74781 19.8326C1.59245 19.761 1.41191 19.7419 1.23415 19.7912C0.834956 19.9017 0.60094 20.3149 0.711464 20.7141C0.748786 20.8489 0.802943 20.9785 0.87258 21.0997C1.5123 22.2137 3.11807 22.2175 3.76294 21.1064C4.10451 20.5178 4.04078 19.8504 3.71437 19.3523ZM2.00886 20.0317C2.07598 20.1115 2.12743 20.2067 2.15708 20.3139C2.16081 20.3273 2.16627 20.3404 2.1733 20.3526C2.23801 20.4653 2.40042 20.4657 2.46561 20.3534C2.53083 20.241 2.44998 20.1002 2.32001 20.0999C2.20896 20.0996 2.10359 20.0752 2.00886 20.0317ZM2.44076 18.312C2.53244 18.4041 2.49005 18.5608 2.36462 18.5942L2.44076 18.312ZM6.19677 19.3481C6.19677 18.9339 6.53256 18.5981 6.94677 18.5981H22.5655C22.9797 18.5981 23.3155 18.9339 23.3155 19.3481C23.3155 19.7623 22.9797 20.0981 22.5655 20.0981H6.94677C6.53256 20.0981 6.19677 19.7623 6.19677 19.3481Z" fill="currentColor"/>
</svg>
